<mxfile host="app.diagrams.net" modified="2024-02-19T18:46:04.991Z" agent="Mozilla/5.0 (Windows NT 10.0; Win64; x64) AppleWebKit/537.36 (KHTML, like Gecko) Chrome/121.0.0.0 Safari/537.36" version="23.1.5" etag="1iLAOLRkvCiHHIWxm2fX" type="github">
  <diagram name="Pagina-1" id="YW3rbJqWCloFkBTCaj5M">
    <mxGraphModel>
      <root>
        <mxCell id="0" />
        <mxCell id="1" parent="0" />
      </root>
    </mxGraphModel>
  </diagram>
</mxfile>
